<svg xmlns="http://www.w3.org/2000/svg" viewBox="0 0 64 64">
  <defs>
    <linearGradient id="g" x1="0" y1="0" x2="1" y2="1">
      <stop offset="0" stop-color="#0ea5e9"/>
      <stop offset="1" stop-color="#0369a1"/>
    </linearGradient>
  </defs>
  <rect width="64" height="64" rx="14" fill="url(#g)"/>
  <path d="M32 14c-5 0-9 4-9 9v6c0 4 3 7 7 7v4c0 4-3 7-7 7h-1v5h1c7 0 12-5 12-12v-4c4 0 7-3 7-7v-6c0-5-4-9-9-9h-1zm-4 9c0-2 2-4 4-4h1c2 0 4 2 4 4v6c0 2-2 4-4 4h-1c-2 0-4-2-4-4v-6z" fill="#fff"/>
  <circle cx="44" cy="44" r="6" fill="#10b981"/>
  <path d="M41 44h6M44 41v6" stroke="#fff" stroke-width="2" stroke-linecap="round"/>
</svg>
